<?xml version="1.0" encoding="utf-8"?>
<!-- Generator: Adobe Illustrator 24.3.0, SVG Export Plug-In . SVG Version: 6.00 Build 0)  -->
<svg version="1.1" id="Layer_1" xmlns="http://www.w3.org/2000/svg" xmlns:xlink="http://www.w3.org/1999/xlink" x="0px" y="0px"
	 viewBox="0 0 386 40" style="enable-background:new 0 0 386 40;" xml:space="preserve">
<style type="text/css">
	.st0{fill-rule:evenodd;clip-rule:evenodd;fill:#898f9f;}
</style>
<path class="st0" d="M20.1,0.6l13.5,7.7c1.5,0.8,2.3,2.3,2.3,3.9v15.5c0,1.7-0.8,3.1-2.3,3.9l-13.5,7.7c-1.5,0.8-3.1,0.8-4.6,0
	L2.3,31.7C0.8,30.9,0,29.4,0,27.8V12.2c0-1.7,0.8-3.1,2.3-3.9l13.3-7.7C17-0.2,18.6-0.2,20.1,0.6z M30.9,29.2c1-0.6,1.5-1.4,1.5-2.5
	V13.3c0-1-0.4-1.9-1.5-2.5L19.3,4.1c-0.8-0.6-1.9-0.6-2.7,0L5,10.8c-1,0.6-1.5,1.4-1.5,2.5v13.5c0,1,0.4,1.9,1.5,2.5l11.6,6.6
	c0.8,0.4,1.9,0.4,2.7,0L30.9,29.2z M18.9,9.5c1.1,0.5,1.6,1.8,1.1,2.9l2.9,2.1c0.2-0.2,0.5-0.4,0.8-0.5l0.2-1.9
	c-0.9-0.5-1.2-1.6-0.7-2.6c0,0,0-0.1,0-0.1c0,0,0-0.1,0.1-0.1l-4-2.3c-0.2,0.4-0.5,0.6-0.9,0.8l0.1,1.5C18.6,9.4,18.8,9.5,18.9,9.5z
	 M17,7.8l0.1,1.6c-0.5,0.2-0.9,0.5-1.2,0.9l-3.4-1l3.8-2.2C16.5,7.4,16.7,7.6,17,7.8z M239.6,17.7c-0.2-1.7-0.9-2.7-2.6-2.7
	c-2.8,0-4.1,2.8-4.1,6.1c0,2.1,0.8,3.8,3.1,3.8c1.6,0,2.8-0.9,3.3-2.8h5.8c-0.7,4.9-4.6,7.4-9.1,7.4c-3.8,0-6.7-1.3-8.1-3.9
	l-0.9-5.8c0.6-5.5,4.3-9.3,10.3-9.3c5,0,8.1,2.4,8.3,7.2H239.6z M207.4,29.2l8.7-18.4h7.5l2.9,18.4h-6l-0.4-3.1h-5.8l-1.3,3.1H207.4
	z M218.9,15.5l-2.9,6.7h3.6L218.9,15.5z M252.7,16.5l-2-5.7h-6l0.3,0.7c1.4,1.5,2.2,3.5,2.4,5.8l1.6,4l-1.2,7.9h5.9l1.2-7.6
	l7.4-10.8h-5.8L252.7,16.5z M201.5,23.1l5.4-12.3h5.7l-8.9,18.4h-6.6L194.5,14l0.5-3l0-0.3h5L201.5,23.1z M184.3,16.1
	c0-3.3-2.3-5.3-7-5.3h-7.3l-2.9,18.4h5.8l1-6.3h1l2.7,6.3h5.9l-3.3-7.5C182.6,21,184.3,19.1,184.3,16.1z M176.1,19.1h-1.6l0.6-4h1.4
	c1.4,0,2.1,0.6,2.1,1.7C178.6,18.4,177.7,19.1,176.1,19.1z M185.2,28.4l-0.5-1.2l2.6-16.4h5.9l-2.9,18.4h-4.7L185.2,28.4z
	 M160.3,10.8h-6.9l-2.9,18.4h5.8l1-6h2.2c4.8,0,7.8-2.5,7.8-7C167.3,12.9,164.9,10.8,160.3,10.8L160.3,10.8z M159.3,19.3h-1.3
	l0.6-4.2h1.1c1.4,0,2.1,0.6,2.1,1.7C161.8,18.4,160.9,19.3,159.3,19.3z M114.5,15.3c0,2.4-1.5,3.9-3.6,4.4c1.8,0.4,3.2,1.6,3.2,3.8
	c0,3.4-2.8,5.7-7.2,5.7h-9.1l2.9-18.4h7.8C112.8,10.8,114.5,12.8,114.5,15.3z M104,25.3h2c1.6,0,2.5-0.9,2.4-2.2
	c0-1.1-0.7-1.7-2.2-1.7h-1.6L104,25.3z M105.2,18h1.8c1.5,0,2.2-0.7,2.2-1.9c0-1.1-0.6-1.5-1.8-1.5h-1.6L105.2,18z M121.7,10.8
	L115.9,23c0,0.2,0,0.3,0,0.5c0,2.2-0.9,4.2-2.6,5.5c0,0-0.1,0-0.1,0.1c0,0,0,0-0.1,0.1h5.4l1.3-3.1h5.8l0.4,3.1h6l-2.9-18.4
	L121.7,10.8L121.7,10.8z M121.6,22.1l2.9-6.7l0.7,6.7H121.6z M136.1,10.8h5.8l-2.2,13.9h6.7l-0.7,4.5h-11.8l0-0.3l-0.3-1.9
	L136.1,10.8z M55.1,22.7h3.1c-0.3,1.3-1.2,2.3-3.3,2.3c-2.4,0-3.5-1.4-3.5-3.8c0-3.2,1.5-6.1,4.3-6.1c1.9,0,2.7,0.8,2.8,2.3h5.8
	c-0.2-5-4-6.9-8.4-6.9c-6.2,0-10.6,4.6-10.6,10.8c0,5.4,3.7,8.2,9.3,8.2c6.5,0,9.4-3.5,9.9-10.6h-8.8L55.1,22.7z M77.2,21.4
	c0-6.5,4.3-11,10.6-11c5,0,9.2,2.8,9.2,8.1c0,6.4-4.3,10.9-10.8,10.9c-2.7,0-5.2-0.9-6.8-2.5l0.3-2l0.3-2.1h-2.2h-0.5
	C77.2,22.4,77.2,21.9,77.2,21.4z M83.2,21.2c0,2.1,1.1,3.7,3.3,3.7c3,0,4.4-3,4.4-6.1c0-2.1-1-3.7-3.3-3.8
	C84.7,15,83.2,18.1,83.2,21.2z M73.3,10.8h-5.8L66.4,18l-0.1,1c-0.1,2-0.4,3.7-0.9,5.2l-0.8,5h12.5l0.7-4.5h-6.7L73.3,10.8z
	 M344.8,10.8c4.7,0,7,2.1,7,5.3c0,3-1.7,4.9-4.1,5.6l3.3,7.5h-5.9l-2.7-6.3h-1l-1,6.3h-5.8l2.9-18.4L344.8,10.8z M342,19.1h1.6
	c1.6,0,2.5-0.7,2.5-2.2c0-1.2-0.7-1.7-2.1-1.7h-1.4L342,19.1z M335.7,10.8h-12.9l0,0.3l-0.7,4.2h3.5l-2.2,13.9h5.9l2.2-13.9h3.5
	L335.7,10.8z M275.6,17.7c-0.2-1.7-0.9-2.7-2.6-2.7c-2.7,0-4.1,2.8-4.1,6.1c0,2.1,0.8,3.8,3.1,3.8c1.6,0,2.8-0.9,3.3-2.8h5.8
	c-0.7,4.9-4.6,7.4-9.1,7.4c-5.5,0-9.1-2.7-9.1-8.1c0-6.3,3.9-10.9,10.4-10.9c5,0,8.1,2.4,8.3,7.2L275.6,17.7z M314.3,20.3l-3.6-9.6
	h-6.6l-1,6.3c0.1,0.5,0.1,1,0.1,1.6c0,2.2-0.4,4.3-1.3,6l-0.7,4.5h5.2l1.7-10.9l4.4,10.9h5.6l2.9-18.4h-5.2L314.3,20.3z M353.6,15.9
	c1.7-3.3,5.1-5.4,9.3-5.4c5,0,9.2,2.8,9.2,8.1c0,6.4-4.3,10.9-10.8,10.9c-4.9,0-9-2.8-9-8c0-0.3,0-0.6,0-0.9l0,0
	c0.8-1.2,1.3-2.8,1.3-4.4L353.6,15.9z M358.4,21.2c0,2.1,1.1,3.7,3.3,3.7c3,0,4.3-3,4.4-6.1c0-2.1-1-3.7-3.3-3.8
	C359.9,15,358.4,18.1,358.4,21.2z M378.3,24.7l2.2-13.9h-5.8l-0.9,5.7c0.1,0.7,0.2,1.4,0.2,2.1c0,2.4-0.5,4.7-1.6,6.5l-0.6,4h12.5
	l0.7-4.5L378.3,24.7z M283,15.5c1.8-3.1,5-5,9.1-5c5,0,9.2,2.8,9.2,8.1c0,6.4-4.3,10.9-10.8,10.9c-3.7,0-6.9-1.6-8.3-4.7
	c0.7-1.8,1.1-3.8,1.1-5.9C283.4,17.7,283.3,16.6,283,15.5L283,15.5z M287.6,21.2c0,2.1,1.1,3.7,3.3,3.7c3,0,4.3-3,4.4-6.1
	c0-2.1-1-3.7-3.3-3.8C289.1,15,287.6,18.1,287.6,21.2z M19.2,23.6c-0.2-0.1-0.4-0.2-0.5-0.3l-3.6,2.5c0.1,0.5,0.1,1-0.2,1.5
	c-0.1,0.1-0.1,0.3-0.2,0.4l2.8,4.2c0.1,0,0.2-0.1,0.3-0.1L19.2,23.6C19.3,23.6,19.3,23.6,19.2,23.6C19.3,23.6,19.3,23.6,19.2,23.6z
	 M22.5,15.9l-3.2-2.3c0,0,0,0,0,0c0,0,0,0,0,0l1.3,4.7c0.3,0,0.7,0.1,1,0.2l1.2-1.8C22.6,16.4,22.5,16.1,22.5,15.9z M14,24.2
	c-0.6-0.3-1.3-0.3-1.9-0.1l-1.2-1.4c0.2-0.7,0-1.4-0.6-1.8l0.6-3.7c0.2-0.1,0.4-0.1,0.6-0.3l6.3,3.3c-0.2,0.6-0.1,1.2,0.1,1.8
	l-3.6,2.4C14.3,24.4,14.1,24.3,14,24.2z M16.3,13.3l-4.1,2.3v0.2l6.3,3.4c0.2-0.2,0.4-0.4,0.7-0.5l-1.3-4.7c-0.4,0-0.7-0.1-1-0.3
	C16.6,13.6,16.4,13.4,16.3,13.3z M28.5,23.6c0.4-0.8,0.2-1.6-0.3-2.2l1.6-3h0.1v7.3v0.1l-1.5-2.1C28.5,23.7,28.5,23.6,28.5,23.6z
	 M9.6,14.4L8,13.5c0-0.5-0.1-1-0.4-1.4l3.4-1.9l4.6,1.4c0,0.2,0,0.3,0.1,0.5l-4,2.3c-0.1-0.1-0.2-0.1-0.3-0.2
	C10.8,13.9,10.1,14,9.6,14.4z M25.9,15.2l2,0.2c0-0.1,0.1-0.1,0.1-0.2c0.4-0.8,1.1-1.2,1.9-1.2c-0.1-0.6-0.5-1.2-1.2-1.6l-2-1.1
	c0,0,0,0,0,0c0,0,0,0,0,0c-0.3,0.6-0.8,0.9-1.4,1l-0.2,1.9C25.5,14.5,25.8,14.8,25.9,15.2z M23.3,21.1c0-0.7-0.2-1.4-0.7-1.9
	l1.2-1.8c0.7,0.1,1.5-0.2,1.9-0.9l2.1,0.2c0.1,0.4,0.4,0.8,0.7,1.1L27,20.8c-0.7-0.1-1.4,0.3-1.8,0.9L23.3,21.1z M26.3,24.6L25,26.4
	c0.1,0.2,0.1,0.5,0.1,0.7l2.2,1.4l1.4-0.8c0.2-0.1,0.4-0.3,0.6-0.4l-1.9-2.8C27,24.6,26.7,24.6,26.3,24.6z M19.8,32.8l3.6-4.4
	c0.3,0.1,0.7,0,0.9-0.2l1.6,1.1L19.8,32.8z M10.8,25.7c0-0.2,0.1-0.4,0.2-0.6l0-0.1l-1.1-1.4c-0.4,0.1-0.8,0.1-1.2-0.1
	c-0.6-0.3-0.9-0.9-0.9-1.5l-2-1v3.7c0.3,0,0.7,0.1,1,0.2c0.4,0.2,0.7,0.5,0.9,0.9L10.8,25.7z M9.6,17L9,20.7
	c-0.2,0.1-0.3,0.1-0.5,0.2l-2.6-1.4v-4.5c0.5,0.1,1-0.1,1.4-0.4L9,15.6C9,16.1,9.2,16.6,9.6,17z M12,28.1c-0.4-0.2-0.8-0.6-1-1
	l-3.1,0.2c0,0.1-0.1,0.3-0.1,0.4c-0.1,0.1-0.1,0.2-0.2,0.3l0,0l8.7,5c0-0.1,0.1-0.2,0.1-0.4l-2.9-4.3C13,28.4,12.5,28.3,12,28.1z
	 M25.2,23.8L24,25.5c-0.1,0-0.3-0.1-0.4-0.1l-1.2-2.3c0.2-0.2,0.4-0.4,0.6-0.7l2,0.5C24.9,23.3,25,23.5,25.2,23.8z M22.2,26.4
	c0-0.1,0.1-0.2,0.2-0.3l-1.2-2.3c-0.1,0-0.3,0.1-0.4,0.1l-1.5,7.6l3.1-3.8C22.1,27.3,22,26.8,22.2,26.4z"/>
</svg>
